<mxfile host="app.diagrams.net" modified="2021-08-11T03:20:26.487Z" agent="5.0 (Windows NT 10.0; Win64; x64) AppleWebKit/537.36 (KHTML, like Gecko) Chrome/92.0.4515.131 Safari/537.36 Edg/92.0.902.67" etag="JzOgSJdh46693gqIrRX_" version="14.9.4" type="github">
  <diagram id="gcdqIl62TrouCr1aFTg6" name="Page-1">
    <mxGraphModel dx="1422" dy="754" grid="1" gridSize="10" guides="1" tooltips="1" connect="1" arrows="1" fold="1" page="1" pageScale="1" pageWidth="850" pageHeight="1100" math="0" shadow="0">
      <root>
        <mxCell id="0" />
        <mxCell id="1" parent="0" />
        <mxCell id="FEpp2K_y1Ivf0mxCMOVs-18" style="edgeStyle=orthogonalEdgeStyle;rounded=0;orthogonalLoop=1;jettySize=auto;html=1;" edge="1" parent="1" source="FEpp2K_y1Ivf0mxCMOVs-1">
          <mxGeometry relative="1" as="geometry">
            <mxPoint x="430" y="270" as="targetPoint" />
          </mxGeometry>
        </mxCell>
        <mxCell id="FEpp2K_y1Ivf0mxCMOVs-1" value="start" style="strokeWidth=2;html=1;shape=mxgraph.flowchart.terminator;whiteSpace=wrap;" vertex="1" parent="1">
          <mxGeometry x="380" y="140" width="100" height="60" as="geometry" />
        </mxCell>
        <mxCell id="FEpp2K_y1Ivf0mxCMOVs-5" value="" style="edgeStyle=orthogonalEdgeStyle;rounded=0;orthogonalLoop=1;jettySize=auto;html=1;" edge="1" parent="1" source="FEpp2K_y1Ivf0mxCMOVs-2" target="FEpp2K_y1Ivf0mxCMOVs-4">
          <mxGeometry relative="1" as="geometry" />
        </mxCell>
        <mxCell id="FEpp2K_y1Ivf0mxCMOVs-2" value="wide (w),&amp;nbsp; long(l)" style="html=1;strokeWidth=2;shape=manualInput;whiteSpace=wrap;rounded=1;size=26;arcSize=11;" vertex="1" parent="1">
          <mxGeometry x="380" y="260" width="100" height="60" as="geometry" />
        </mxCell>
        <mxCell id="FEpp2K_y1Ivf0mxCMOVs-7" value="" style="edgeStyle=orthogonalEdgeStyle;rounded=0;orthogonalLoop=1;jettySize=auto;html=1;" edge="1" parent="1" source="FEpp2K_y1Ivf0mxCMOVs-4" target="FEpp2K_y1Ivf0mxCMOVs-6">
          <mxGeometry relative="1" as="geometry" />
        </mxCell>
        <mxCell id="FEpp2K_y1Ivf0mxCMOVs-4" value="area = w * l" style="rounded=0;whiteSpace=wrap;html=1;strokeWidth=2;" vertex="1" parent="1">
          <mxGeometry x="370" y="370" width="120" height="60" as="geometry" />
        </mxCell>
        <mxCell id="FEpp2K_y1Ivf0mxCMOVs-9" value="" style="edgeStyle=orthogonalEdgeStyle;rounded=0;orthogonalLoop=1;jettySize=auto;html=1;" edge="1" parent="1" source="FEpp2K_y1Ivf0mxCMOVs-6" target="FEpp2K_y1Ivf0mxCMOVs-8">
          <mxGeometry relative="1" as="geometry" />
        </mxCell>
        <mxCell id="FEpp2K_y1Ivf0mxCMOVs-6" value="area" style="strokeWidth=2;html=1;shape=mxgraph.flowchart.display;whiteSpace=wrap;" vertex="1" parent="1">
          <mxGeometry x="370" y="480" width="120" height="60" as="geometry" />
        </mxCell>
        <mxCell id="FEpp2K_y1Ivf0mxCMOVs-8" value="end" style="strokeWidth=2;html=1;shape=mxgraph.flowchart.terminator;whiteSpace=wrap;" vertex="1" parent="1">
          <mxGeometry x="380" y="600" width="100" height="60" as="geometry" />
        </mxCell>
      </root>
    </mxGraphModel>
  </diagram>
</mxfile>
